<?xml version="1.0" standalone="no"?>
<!DOCTYPE svg PUBLIC "-//W3C//DTD SVG 20010904//EN"
 "http://www.w3.org/TR/2001/REC-SVG-20010904/DTD/svg10.dtd">
<svg version="1.0" xmlns="http://www.w3.org/2000/svg"
 width="10394.000000pt" height="7323.000000pt" viewBox="0 0 10394.000000 7323.000000"
 preserveAspectRatio="xMidYMid meet">

<g transform="translate(0.000000,7323.000000) scale(0.100000,-0.100000)"
fill="#000000" stroke="none">
<path d="M49487 62654 c-1 -1 -49 -4 -107 -8 -58 -3 -121 -8 -140 -11 -19 -3
-53 -7 -75 -10 -101 -13 -135 -18 -210 -31 -44 -8 -93 -16 -110 -18 -54 -8
-93 -15 -155 -26 -34 -6 -76 -13 -93 -16 -18 -3 -41 -7 -52 -9 -11 -2 -36 -7
-55 -10 -66 -12 -107 -20 -195 -40 -38 -8 -86 -18 -105 -20 -19 -3 -46 -8 -60
-12 -14 -4 -32 -8 -40 -9 -8 -2 -35 -8 -60 -15 -25 -6 -55 -13 -67 -14 -12 -2
-27 -7 -34 -11 -7 -4 -24 -9 -38 -10 -35 -4 -69 -11 -116 -24 -22 -6 -51 -13
-65 -15 -51 -8 -165 -35 -270 -62 -14 -4 -34 -8 -45 -9 -11 -1 -40 -8 -65 -14
-25 -7 -54 -13 -66 -14 -11 -2 -26 -6 -33 -10 -7 -5 -45 -16 -85 -26 -40 -9
-82 -23 -94 -29 -13 -7 -27 -9 -32 -6 -5 3 -19 1 -32 -6 -12 -6 -53 -20 -92
-30 -124 -32 -174 -47 -196 -59 -12 -6 -24 -9 -27 -6 -3 3 -22 -2 -42 -10 -20
-9 -45 -17 -56 -18 -20 -3 -63 -16 -145 -45 -25 -9 -48 -15 -52 -14 -4 2 -28
-6 -54 -17 -26 -11 -49 -18 -52 -16 -2 3 -17 -1 -33 -10 -16 -8 -41 -16 -56
-18 -16 -2 -44 -11 -64 -19 -20 -9 -39 -14 -41 -11 -3 2 -29 -7 -59 -21 -30
-14 -62 -25 -71 -25 -9 0 -43 -11 -75 -23 -79 -32 -151 -57 -193 -67 -19 -4
-55 -17 -80 -29 -25 -11 -53 -21 -63 -21 -9 0 -47 -14 -84 -30 -37 -17 -72
-29 -77 -27 -6 2 -49 -14 -94 -35 -46 -21 -92 -38 -102 -38 -9 0 -63 -20 -119
-45 -56 -25 -108 -45 -116 -45 -18 0 -1025 -440 -1045 -456 -9 -7 -63 -34
-120 -60 -58 -25 -112 -52 -120 -59 -8 -7 -42 -25 -75 -40 -32 -14 -66 -32
-75 -39 -8 -7 -44 -26 -80 -42 -36 -16 -69 -33 -75 -39 -5 -6 -35 -22 -65 -35
-30 -13 -62 -30 -70 -37 -9 -6 -41 -24 -73 -38 -31 -15 -57 -30 -57 -34 0 -4
-15 -13 -34 -19 -19 -7 -49 -23 -68 -35 -18 -12 -58 -33 -88 -47 -30 -14 -57
-29 -59 -33 -1 -5 -26 -19 -55 -33 -28 -13 -71 -37 -95 -52 -89 -56 -117 -72
-168 -97 -29 -15 -53 -30 -53 -34 0 -4 -17 -15 -37 -24 -21 -9 -58 -30 -83
-47 -25 -16 -60 -37 -77 -45 -18 -8 -33 -19 -33 -23 0 -5 -25 -19 -55 -31 -30
-13 -55 -26 -55 -31 0 -4 -14 -14 -32 -21 -18 -7 -40 -21 -50 -31 -10 -10 -22
-18 -28 -18 -8 0 -71 -38 -96 -59 -6 -5 -26 -17 -44 -26 -19 -10 -40 -24 -48
-31 -7 -8 -24 -17 -38 -20 -13 -3 -24 -10 -24 -15 0 -5 -11 -14 -25 -19 -14
-5 -25 -14 -25 -19 0 -5 -15 -15 -34 -21 -19 -6 -37 -17 -40 -25 -3 -8 -12
-15 -20 -15 -8 0 -21 -6 -28 -13 -7 -6 -53 -39 -103 -73 -149 -100 -220 -149
-225 -154 -3 -3 -39 -28 -80 -55 -80 -53 -82 -55 -119 -85 -13 -11 -28 -20
-32 -20 -4 0 -14 -6 -21 -12 -7 -7 -33 -26 -58 -43 -25 -16 -50 -34 -57 -40
-26 -21 -39 -31 -83 -60 -58 -39 -68 -46 -88 -67 -9 -10 -22 -18 -28 -18 -7 0
-14 -7 -18 -15 -3 -8 -10 -15 -16 -15 -5 0 -18 -8 -28 -17 -10 -10 -29 -25
-41 -33 -13 -8 -33 -23 -44 -34 -12 -10 -41 -32 -64 -49 -24 -17 -43 -34 -43
-39 0 -4 -7 -8 -15 -8 -9 0 -18 -7 -21 -15 -4 -8 -11 -15 -18 -15 -6 0 -19 -8
-28 -17 -9 -10 -23 -23 -30 -28 -81 -62 -104 -81 -111 -92 -4 -7 -13 -13 -19
-13 -11 0 -81 -54 -124 -95 -12 -11 -31 -27 -44 -35 -12 -8 -37 -28 -55 -45
-19 -16 -77 -66 -131 -110 -53 -44 -110 -92 -126 -107 -16 -16 -32 -28 -36
-28 -4 0 -15 -8 -23 -17 -9 -10 -38 -37 -65 -59 -27 -23 -69 -61 -94 -84 -25
-23 -63 -57 -85 -76 -176 -151 -427 -390 -793 -754 -305 -303 -436 -438 -501
-515 -19 -22 -69 -78 -111 -125 -43 -47 -94 -105 -115 -130 -21 -25 -50 -58
-65 -75 -84 -89 -265 -300 -390 -455 -19 -24 -40 -48 -45 -54 -36 -38 -105
-124 -105 -130 0 -4 -6 -13 -12 -20 -24 -24 -86 -102 -130 -161 -25 -33 -52
-66 -61 -74 -9 -7 -17 -17 -17 -22 0 -8 -23 -37 -55 -73 -6 -6 -22 -27 -35
-46 -27 -38 -48 -64 -97 -121 -18 -20 -33 -41 -33 -46 0 -6 -7 -17 -16 -24 -9
-8 -27 -30 -41 -49 -35 -52 -72 -102 -91 -125 -9 -11 -28 -37 -42 -58 -14 -20
-28 -37 -32 -37 -5 0 -8 -4 -8 -9 0 -8 -89 -140 -119 -177 -5 -6 -40 -58 -77
-115 -38 -57 -72 -105 -76 -107 -5 -2 -8 -8 -8 -14 0 -6 -11 -26 -25 -44 -14
-18 -25 -37 -25 -43 0 -6 -4 -11 -10 -11 -5 0 -10 -5 -10 -11 0 -6 -11 -25
-25 -43 -14 -18 -25 -36 -25 -41 0 -4 -16 -29 -35 -55 -19 -26 -35 -53 -35
-59 0 -6 -4 -11 -9 -11 -5 0 -13 -9 -16 -21 -4 -12 -43 -79 -86 -150 -43 -71
-79 -132 -79 -135 0 -4 -15 -27 -34 -53 -18 -25 -37 -56 -40 -68 -4 -13 -12
-23 -17 -23 -5 0 -9 -5 -9 -11 0 -7 -15 -33 -34 -59 -18 -26 -37 -56 -40 -67
-4 -11 -15 -28 -26 -38 -11 -10 -20 -22 -20 -27 0 -5 -22 -44 -48 -86 -102
-161 -132 -212 -132 -221 0 -5 -6 -16 -13 -23 -7 -7 -18 -24 -24 -38 -7 -14
-33 -61 -57 -105 -47 -84 -467 -922 -531 -1060 -35 -75 -51 -110 -109 -237
-13 -29 -40 -87 -59 -128 -19 -41 -51 -117 -71 -168 -41 -107 -62 -155 -82
-194 -9 -16 -12 -28 -8 -28 3 0 -1 -10 -9 -23 -8 -13 -90 -216 -182 -453 -92
-236 -171 -437 -176 -446 -5 -10 -9 -24 -9 -32 0 -8 -22 -72 -48 -143 -61
-162 -93 -253 -97 -278 -1 -11 -10 -40 -19 -65 -41 -115 -100 -302 -116 -366
-10 -39 -23 -80 -29 -93 -7 -12 -14 -34 -16 -49 -1 -15 -10 -45 -18 -67 -8
-22 -25 -78 -37 -125 -12 -47 -28 -101 -36 -121 -7 -20 -11 -39 -8 -42 3 -3
-1 -18 -10 -35 -8 -16 -13 -32 -10 -35 3 -3 1 -14 -5 -25 -5 -10 -12 -30 -15
-43 -4 -24 -15 -66 -36 -144 -18 -70 -41 -169 -45 -200 -2 -16 -9 -46 -15 -65
-9 -29 -25 -100 -55 -245 -2 -11 -9 -38 -15 -60 -6 -22 -13 -58 -16 -80 -3
-21 -8 -43 -11 -49 -3 -5 -8 -19 -9 -30 -2 -12 -10 -50 -18 -86 -8 -36 -15
-67 -15 -70 -6 -39 -15 -78 -22 -91 -4 -8 -10 -33 -13 -55 -10 -76 -15 -106
-21 -124 -8 -25 -14 -55 -26 -125 -14 -82 -16 -93 -29 -150 -6 -27 -13 -67
-15 -90 -2 -22 -9 -65 -16 -95 -6 -30 -12 -66 -13 -80 -9 -83 -20 -147 -26
-160 -4 -8 -10 -40 -14 -70 -10 -97 -17 -154 -26 -215 -21 -139 -50 -366 -55
-431 -3 -38 -7 -80 -10 -94 -5 -31 -16 -120 -20 -169 -1 -20 -6 -62 -10 -93
-7 -57 -8 -58 -49 -69 -91 -25 -807 -194 -1114 -263 -982 -223 -2268 -488
-3354 -692 -230 -44 -413 -81 -407 -82 16 -6 668 17 964 33 1766 100 4208 428
6600 889 431 83 1368 272 1540 310 61 13 111 23 112 22 2 -1 -6 -64 -17 -140
-63 -437 -100 -982 -100 -1487 l0 -326 -282 -46 c-1272 -208 -2574 -333 -3665
-354 l-343 -6 0 -311 c0 -915 128 -1894 396 -3031 95 -404 311 -1188 406
-1480 5 -16 18 -61 28 -100 10 -38 25 -86 34 -106 8 -20 13 -39 10 -42 -3 -3
4 -23 15 -46 12 -22 21 -50 21 -61 0 -11 9 -39 20 -61 12 -22 18 -44 15 -49
-3 -5 4 -28 15 -50 11 -22 18 -45 15 -49 -3 -5 6 -33 20 -63 14 -29 25 -61 25
-70 0 -9 11 -43 23 -75 23 -55 35 -89 73 -200 9 -27 30 -80 46 -120 16 -39 31
-82 32 -95 2 -13 33 -90 70 -173 36 -82 66 -157 66 -166 0 -9 43 -114 95 -233
52 -120 95 -224 95 -232 0 -19 300 -703 322 -734 10 -14 51 -102 92 -197 41
-95 84 -185 95 -200 11 -15 41 -77 67 -138 25 -60 50 -111 55 -113 5 -2 18
-24 29 -50 12 -25 27 -53 34 -62 7 -8 26 -44 42 -80 16 -36 33 -69 40 -75 6
-5 21 -35 34 -65 12 -30 28 -59 34 -65 7 -5 21 -30 31 -55 10 -25 24 -49 30
-55 7 -5 22 -30 34 -55 12 -25 38 -72 57 -105 18 -33 44 -80 57 -105 12 -25
28 -52 35 -60 12 -14 28 -41 69 -120 10 -19 23 -39 30 -45 7 -5 19 -27 28 -49
9 -21 20 -43 26 -50 5 -6 24 -33 41 -61 17 -27 47 -75 67 -105 20 -30 43 -70
50 -87 7 -18 17 -33 22 -33 5 0 14 -11 19 -25 5 -14 18 -38 28 -53 48 -68 98
-149 109 -174 7 -16 17 -28 23 -28 5 0 10 -7 10 -15 0 -8 9 -23 20 -32 11 -10
20 -23 20 -30 0 -6 6 -18 13 -25 7 -7 48 -67 93 -133 108 -161 168 -249 174
-255 3 -3 19 -25 35 -50 17 -25 35 -50 40 -57 21 -26 31 -39 60 -83 17 -25 35
-50 40 -56 6 -6 17 -22 25 -34 8 -13 23 -32 33 -42 9 -10 17 -23 17 -28 0 -6
7 -13 15 -16 8 -4 15 -13 15 -20 0 -8 7 -17 15 -20 8 -4 15 -11 15 -17 0 -6 7
-17 15 -26 9 -9 46 -56 82 -106 37 -49 72 -94 80 -98 7 -4 13 -14 13 -21 0 -8
7 -16 15 -20 8 -3 15 -12 15 -21 0 -8 4 -15 8 -15 4 0 36 -39 71 -86 35 -47
69 -91 76 -98 17 -17 92 -110 150 -186 27 -36 54 -69 60 -75 7 -5 27 -30 45
-55 19 -25 40 -49 47 -53 7 -4 13 -12 13 -17 0 -5 12 -22 28 -38 34 -37 122
-138 142 -164 8 -11 26 -32 40 -47 14 -15 36 -40 49 -56 50 -64 151 -175 368
-404 157 -165 730 -739 858 -858 61 -56 137 -128 170 -159 108 -101 233 -214
262 -237 15 -12 44 -38 63 -57 20 -19 56 -51 80 -70 24 -19 62 -53 85 -75 23
-22 61 -56 85 -75 24 -19 58 -49 77 -66 18 -18 52 -47 75 -65 23 -19 46 -39
52 -44 6 -6 38 -33 71 -60 33 -28 62 -52 65 -55 3 -3 21 -17 40 -30 42 -29
154 -122 158 -132 2 -5 9 -8 16 -8 7 0 22 -11 32 -25 10 -14 22 -25 27 -25 4
0 30 -18 58 -40 28 -22 55 -40 60 -40 5 0 9 -6 9 -13 0 -8 12 -20 28 -28 15
-8 41 -26 57 -41 17 -15 48 -39 70 -54 22 -14 42 -30 45 -33 3 -4 21 -18 40
-31 19 -13 37 -27 40 -30 3 -4 28 -21 55 -40 28 -19 52 -37 55 -40 3 -3 26
-21 52 -38 25 -18 52 -38 60 -45 11 -11 131 -93 177 -122 9 -5 18 -12 21 -15
3 -3 31 -22 63 -42 31 -21 83 -55 115 -75 31 -21 59 -41 60 -45 2 -5 8 -8 14
-8 6 0 24 -12 42 -27 17 -14 42 -31 56 -37 14 -6 64 -37 112 -69 48 -31 90
-57 93 -57 3 0 14 -8 25 -18 10 -9 36 -26 57 -37 21 -11 40 -22 43 -26 3 -3
61 -40 130 -82 69 -43 132 -82 140 -87 8 -5 29 -17 47 -26 18 -9 37 -22 44
-30 6 -8 16 -14 22 -14 5 0 38 -18 73 -40 35 -22 68 -40 73 -40 5 0 16 -6 23
-13 7 -7 24 -18 38 -24 14 -7 61 -33 105 -58 44 -25 94 -53 110 -61 17 -8 53
-28 80 -44 28 -17 61 -35 75 -42 14 -7 27 -15 30 -18 3 -3 29 -19 59 -34 73
-37 95 -50 101 -57 4 -4 60 -34 142 -76 15 -8 30 -18 33 -23 3 -5 19 -11 35
-15 17 -4 30 -10 30 -15 0 -5 10 -12 22 -16 11 -3 53 -26 92 -49 39 -23 81
-46 94 -50 12 -3 22 -11 22 -16 0 -5 5 -9 12 -9 6 0 84 -36 172 -79 89 -44
173 -83 189 -86 15 -4 27 -10 27 -15 0 -4 33 -20 73 -35 39 -16 74 -31 77 -35
3 -4 39 -19 80 -35 41 -16 77 -32 80 -36 3 -4 32 -17 65 -30 33 -12 67 -27 75
-34 8 -7 42 -22 75 -34 33 -12 69 -28 81 -36 11 -7 69 -32 130 -55 60 -24 111
-46 114 -50 3 -4 55 -26 115 -50 61 -23 224 -87 362 -141 139 -54 258 -99 265
-99 7 0 47 -13 88 -28 94 -36 221 -80 280 -97 25 -7 74 -23 110 -36 36 -12 94
-32 130 -45 36 -12 88 -29 115 -39 28 -9 61 -19 73 -20 13 -2 47 -12 75 -23
29 -11 79 -28 112 -37 33 -10 69 -21 80 -26 42 -16 92 -31 160 -49 151 -40
230 -62 239 -67 5 -4 26 -10 45 -14 20 -4 45 -10 56 -12 11 -3 34 -8 50 -12
17 -4 62 -16 100 -28 39 -11 77 -21 85 -22 8 -1 51 -12 95 -23 93 -24 134 -34
155 -38 8 -2 53 -12 100 -23 113 -27 269 -61 300 -67 24 -4 57 -11 90 -20 69
-17 102 -24 136 -28 21 -3 93 -16 159 -30 66 -13 140 -27 165 -31 25 -3 59
-10 75 -15 17 -5 55 -11 85 -14 30 -4 69 -11 85 -16 17 -5 50 -11 75 -14 25
-2 86 -12 136 -20 50 -9 104 -18 120 -21 16 -2 88 -13 159 -24 72 -11 153 -22
180 -25 114 -13 145 -18 260 -36 66 -10 147 -21 180 -25 267 -27 318 -32 420
-40 127 -10 156 -13 220 -19 33 -3 89 -8 125 -11 36 -2 97 -7 135 -10 39 -4
90 -8 115 -10 153 -12 572 -20 1080 -20 616 0 808 6 1133 31 39 3 101 7 137 9
171 11 237 16 260 20 14 2 68 7 120 10 52 3 102 8 110 11 9 2 40 6 70 8 30 3
82 7 115 11 33 3 84 8 114 11 30 3 57 7 61 9 5 3 31 6 165 20 80 9 180 22 210
29 11 3 52 8 90 11 39 4 100 13 138 21 37 8 71 13 75 12 9 -2 101 10 167 22
28 6 68 12 90 15 22 4 49 8 60 10 11 3 38 7 60 10 22 3 155 28 295 55 140 28
266 52 280 55 34 6 250 52 330 71 36 8 74 16 85 18 11 3 39 9 63 15 23 6 61
16 85 22 23 6 51 12 63 13 11 2 26 6 33 10 10 7 24 10 98 21 12 2 27 6 34 11
7 4 22 9 33 10 31 5 91 20 181 44 79 21 141 37 180 44 11 2 35 9 53 15 17 6
47 16 65 22 17 6 43 12 56 14 13 2 35 8 50 13 14 5 46 15 71 21 25 7 59 17 75
22 17 6 39 12 50 14 38 8 120 33 157 48 20 8 38 13 41 11 2 -3 26 5 52 16 26
11 50 19 52 16 3 -2 28 6 58 19 29 13 55 22 58 19 2 -2 25 5 51 16 26 11 50
19 54 18 4 -2 32 7 62 18 97 37 154 55 183 59 15 3 45 14 67 25 21 11 49 20
60 20 11 0 39 9 60 20 22 11 52 22 67 24 16 2 59 17 97 35 38 17 77 31 86 31
10 0 63 20 119 45 56 25 111 45 122 45 28 0 1568 675 1583 694 6 8 50 31 99
51 48 21 90 42 93 47 3 4 35 22 72 39 36 16 69 33 72 38 3 4 30 20 60 35 102
51 142 73 148 82 4 5 27 18 52 29 25 10 54 26 65 35 11 9 39 25 63 35 23 10
42 21 42 25 0 4 21 17 48 29 43 20 104 54 142 81 15 10 68 39 150 82 25 13 46
26 48 30 2 4 22 17 45 28 23 11 62 34 87 50 25 17 57 36 73 42 15 7 27 16 27
20 0 4 16 14 35 22 19 8 40 20 47 26 27 22 94 64 126 77 17 7 32 17 32 22 0 6
10 13 22 17 13 4 34 15 48 24 14 9 86 57 160 106 74 49 137 91 140 94 14 15
88 60 98 60 7 0 12 5 12 10 0 6 12 16 28 23 15 6 31 17 35 24 4 7 12 13 18 13
13 0 72 41 82 58 4 6 15 12 22 12 8 0 15 4 15 8 0 9 77 62 89 62 5 0 16 9 26
20 10 11 24 20 32 20 7 0 16 7 19 15 4 8 12 15 20 15 8 0 14 4 14 8 0 10 77
62 91 62 5 0 9 4 9 8 0 9 76 62 89 62 3 0 14 8 22 18 9 9 26 24 38 32 58 38
166 122 169 130 2 6 8 10 13 10 8 0 199 142 235 175 6 5 22 17 34 25 13 8 30
23 39 33 8 9 21 17 28 17 7 0 13 5 13 10 0 6 7 13 16 17 9 3 29 18 45 32 16
14 42 38 58 52 16 14 36 29 45 32 9 4 16 11 16 17 0 5 6 10 13 10 7 0 19 8 28
18 8 9 35 33 59 52 24 19 51 42 60 50 8 8 36 31 60 50 52 41 79 63 125 105 18
17 42 37 53 45 43 33 329 288 351 313 8 9 19 17 22 17 4 0 21 12 37 27 16 16
76 71 132 123 57 52 129 120 161 150 32 30 108 102 169 160 171 161 528 528
705 725 15 17 48 53 74 80 25 28 78 86 116 129 39 44 79 88 91 100 12 12 45
50 74 86 29 36 59 72 67 80 52 56 87 97 219 256 179 216 186 223 202 240 6 7
12 16 12 20 0 6 84 109 100 124 3 3 17 21 30 40 13 19 44 60 70 90 25 30 52
65 60 76 28 41 115 156 143 189 15 18 27 37 27 43 0 5 7 16 16 23 15 12 45 54
79 108 6 9 12 18 15 21 17 17 130 170 130 175 0 4 20 36 45 71 49 68 124 177
140 203 39 62 138 205 150 217 8 9 15 20 15 25 0 11 48 87 68 108 8 8 18 24
23 35 11 26 29 55 50 78 9 10 22 31 30 46 8 15 18 32 22 37 19 23 86 131 87
137 0 4 18 33 40 64 22 32 40 63 40 71 0 7 5 13 10 13 6 0 10 4 10 10 0 5 15
31 33 57 41 61 55 84 64 103 4 8 35 61 70 118 35 56 63 106 63 111 0 4 20 39
45 77 24 38 45 75 45 82 0 6 4 12 9 12 5 0 13 10 17 23 4 12 16 36 28 52 12
17 33 53 46 80 14 28 28 52 31 55 3 3 28 50 55 105 27 55 51 102 54 105 3 3
22 39 44 80 21 41 76 148 123 238 46 90 88 171 93 180 5 9 26 53 46 97 20 44
49 107 64 141 16 33 38 83 48 110 11 27 31 72 45 99 14 28 29 62 32 78 4 15
11 27 15 27 4 0 27 51 50 113 24 61 53 132 66 157 13 25 93 225 179 445 86
220 161 404 166 410 5 5 9 15 9 23 0 7 32 95 71 195 39 100 77 202 84 227 13
46 37 116 85 250 15 41 37 109 50 150 12 41 32 104 45 140 12 36 30 99 40 140
17 79 28 118 52 186 7 23 16 52 18 65 3 13 9 35 14 49 5 14 19 63 31 110 12
47 27 99 32 115 14 44 77 286 99 385 10 47 24 103 29 125 6 22 13 50 15 61 1
12 8 30 13 41 6 10 13 37 16 59 3 21 16 89 30 149 13 61 41 189 60 285 20 96
41 197 48 225 6 27 12 56 13 65 1 17 8 49 37 200 11 58 21 112 22 120 1 8 5
26 9 40 4 14 9 39 12 55 2 17 9 55 15 85 6 30 13 78 16 105 3 28 8 53 10 56 3
6 11 53 29 174 2 11 11 72 20 135 23 156 25 169 29 215 2 22 7 58 10 80 3 22
8 69 11 105 4 36 8 76 10 90 6 54 16 169 20 245 6 108 14 197 26 279 5 38 7
71 5 74 -3 2 -43 -12 -90 -32 -46 -20 -91 -36 -99 -36 -7 0 -55 -18 -107 -40
-51 -23 -95 -39 -97 -36 -3 2 -35 -9 -71 -26 -37 -16 -78 -31 -92 -33 -14 -2
-56 -17 -93 -34 -38 -17 -78 -31 -88 -31 -11 0 -37 -9 -59 -20 -22 -11 -49
-20 -60 -20 -12 0 -34 -7 -50 -15 -16 -9 -42 -17 -57 -19 -16 -2 -50 -14 -78
-26 -27 -13 -59 -24 -71 -26 -11 -1 -53 -16 -92 -33 -39 -17 -77 -31 -86 -31
-8 0 -41 -11 -72 -25 -31 -14 -65 -25 -75 -25 -10 0 -33 -6 -51 -14 -47 -19
-127 -46 -169 -56 -20 -5 -66 -23 -103 -40 -37 -16 -70 -29 -74 -28 -4 1 -16
-2 -27 -6 -200 -76 -237 -88 -277 -90 -39 -3 -43 1 -30 20 6 10 6465 2841
6505 2852 11 3 30 -7 50 -26 96 -92 240 -146 392 -146 174 0 311 60 432 188
139 146 192 349 143 540 -56 221 -215 380 -436 436 -191 49 -394 -4 -540 -143
-125 -118 -187 -257 -188 -424 l-1 -92 -30 -14 c-16 -8 -183 -81 -370 -162
-187 -82 -348 -155 -357 -163 -23 -19 -805 -362 -826 -362 -8 0 -585 -250
-1283 -555 -697 -305 -1270 -555 -1273 -555 -4 0 -3 84 1 188 18 474 0 1410
-32 1612 -4 19 -8 44 -9 55 -2 11 -4 23 -5 28 0 4 -14 1 -31 -8 -16 -8 -38
-15 -49 -15 -11 0 -54 -16 -97 -35 -42 -19 -85 -35 -94 -35 -10 0 -47 -13 -83
-29 -36 -16 -67 -27 -70 -25 -3 3 -35 -9 -72 -25 -37 -17 -71 -28 -76 -25 -5
2 -22 -2 -38 -10 -16 -9 -46 -20 -67 -25 -37 -9 -102 -26 -271 -72 -43 -11
-94 -24 -113 -29 -100 -25 -124 -32 -143 -41 -11 -6 -29 -12 -41 -14 -24 -3
-98 -28 -171 -57 -27 -11 -62 -22 -76 -23 -14 -2 -40 -10 -57 -19 -17 -9 -40
-16 -52 -16 -12 0 -33 -6 -48 -14 -15 -7 -35 -10 -45 -7 -13 5 986 447 3120
1380 1726 756 3140 1378 3141 1383 2 4 12 8 22 8 10 0 20 4 22 8 4 10 126 69
161 77 19 5 36 -2 72 -30 110 -84 217 -119 360 -119 174 0 311 59 432 188 311
329 151 863 -293 976 -43 11 -105 20 -139 20 -78 0 -195 -30 -274 -69 -79 -40
-186 -142 -234 -222 -61 -103 -80 -175 -81 -312 l-1 -118 -1335 -585 c-734
-322 -1346 -586 -1358 -588 -13 -2 -27 -7 -30 -13 -4 -5 -14 -10 -23 -10 -9 0
-423 -178 -920 -395 -497 -218 -919 -398 -938 -400 -38 -3 -35 -13 -46 141
-13 164 -15 186 -19 216 -2 17 -7 70 -11 120 -4 49 -8 92 -10 95 -2 3 -6 32
-10 65 -4 33 -9 71 -11 85 -2 14 -6 43 -8 65 -3 22 -8 56 -11 75 -3 19 -8 51
-10 70 -2 19 -5 35 -6 35 -1 0 -3 11 -4 25 -2 14 -6 41 -9 60 -3 19 -8 49 -10
67 -3 18 -7 36 -9 40 -3 4 -8 35 -11 67 -4 33 -11 79 -16 102 -6 24 -9 47 -8
51 2 10 -11 62 -23 91 -8 21 -11 22 -36 9 -16 -8 -33 -13 -38 -11 -6 3 -62
-18 -124 -46 -62 -27 -120 -50 -128 -50 -8 0 -46 -14 -86 -31 -40 -17 -81 -33
-92 -34 -19 -3 -67 -19 -165 -54 -25 -9 -49 -16 -55 -16 -5 1 -34 -10 -64 -22
-29 -13 -62 -23 -73 -23 -10 0 -36 -9 -58 -20 -21 -11 -55 -24 -77 -29 -43
-10 -114 -34 -188 -63 -27 -11 -61 -21 -75 -23 -14 -2 -54 -17 -90 -33 -36
-16 -72 -29 -80 -29 -8 0 -49 -15 -90 -33 -41 -18 -85 -34 -97 -36 -12 -1 -48
-14 -79 -28 -31 -14 -64 -26 -74 -26 -10 0 -43 -11 -74 -25 -31 -14 -64 -25
-74 -25 -9 0 -41 -11 -70 -25 -30 -14 -63 -25 -73 -25 -11 0 -37 -9 -59 -20
-22 -11 -47 -20 -57 -20 -10 0 -45 -11 -78 -24 -62 -24 -127 -47 -205 -74 -25
-8 -76 -28 -115 -43 -38 -16 -77 -29 -87 -29 -9 0 -46 -14 -84 -30 -37 -17
-69 -28 -72 -26 -2 3 -29 -6 -59 -20 -31 -13 -62 -24 -70 -24 -8 0 -46 -13
-85 -30 -38 -16 -77 -30 -85 -30 -8 0 -51 -16 -95 -35 -44 -20 -83 -34 -85
-31 -3 2 -26 -5 -51 -16 -61 -26 -143 -50 -214 -62 -13 -3 -40 -11 -60 -20
-21 -9 -38 -12 -38 -7 0 6 20 19 44 29 24 11 47 25 50 31 4 6 18 11 30 11 25
0 171 63 196 85 21 18 1365 605 1420 620 40 11 1317 566 1373 597 12 7 28 13
35 14 7 1 24 9 37 18 13 9 29 16 34 16 6 0 160 66 343 146 183 80 893 391
1578 691 685 299 1247 549 1248 554 2 5 12 9 22 9 23 0 70 20 70 30 0 4 28 19
62 34 l61 27 31 -30 c95 -91 240 -145 391 -145 174 0 311 60 432 188 311 329
151 863 -293 976 -97 25 -180 25 -276 1 -107 -28 -187 -71 -265 -145 -126
-119 -187 -257 -188 -428 l0 -97 -173 -76 c-95 -42 -177 -73 -182 -70 -6 4
-13 0 -16 -9 -3 -8 -13 -14 -22 -13 -9 0 -564 -239 -1232 -531 -668 -293
-1218 -528 -1222 -524 -5 5 -11 26 -13 48 -8 65 -13 96 -30 169 -24 112 -26
119 -30 145 -9 54 -35 163 -42 173 -3 5 -8 20 -9 31 -2 12 -8 41 -14 66 -14
57 -18 75 -28 125 -5 22 -14 50 -20 61 -6 12 -9 24 -6 27 3 3 -2 19 -11 37 -9
17 -14 37 -12 43 2 7 0 21 -6 32 -9 18 -20 59 -32 120 -2 11 -10 36 -19 56 -8
20 -13 39 -10 42 3 3 0 15 -6 27 -12 22 -25 65 -59 195 -10 39 -24 84 -31 100
-7 17 -13 37 -14 45 -1 8 -9 35 -17 60 -39 109 -51 146 -53 160 -1 8 -9 35
-17 60 -37 102 -51 146 -54 165 -1 11 -10 37 -19 57 -9 21 -15 41 -14 45 2 5
-7 33 -18 63 -35 92 -56 153 -65 193 -5 22 -18 56 -29 78 -11 21 -22 51 -24
66 -2 16 -17 59 -34 97 -18 37 -30 72 -27 76 2 4 -16 53 -40 109 -25 55 -45
108 -45 116 0 8 -49 127 -110 265 -60 139 -110 258 -110 267 0 19 -169 406
-181 414 -5 3 -61 124 -125 269 -64 146 -120 267 -125 270 -4 3 -34 64 -65
135 -31 72 -62 137 -70 145 -7 9 -31 55 -52 104 -22 49 -44 91 -49 95 -4 3
-19 31 -33 61 -13 30 -29 62 -36 70 -12 15 -48 83 -100 190 -15 30 -31 58 -36
61 -5 3 -20 28 -34 55 -39 77 -68 128 -77 135 -5 3 -20 28 -33 55 -51 99 -71
135 -83 152 -25 35 -61 98 -77 135 -10 20 -20 37 -24 37 -4 0 -15 18 -25 40
-10 22 -22 40 -26 40 -4 0 -13 16 -20 35 -7 19 -17 35 -22 35 -4 0 -15 16 -23
35 -8 19 -18 35 -23 35 -5 0 -11 10 -15 23 -3 12 -12 31 -21 42 -8 11 -31 45
-50 75 -19 30 -39 62 -45 70 -42 64 -57 89 -67 113 -7 15 -17 27 -22 27 -5 0
-12 11 -15 24 -3 14 -12 31 -19 38 -6 7 -25 33 -42 58 -16 25 -32 47 -35 50
-16 15 -100 148 -100 158 0 7 -4 12 -9 12 -5 0 -40 46 -77 103 -38 56 -71 104
-74 107 -6 6 -34 46 -92 131 -23 35 -47 69 -53 76 -21 26 -31 39 -60 83 -32
47 -35 52 -63 87 -9 11 -24 31 -32 44 -8 12 -23 31 -32 41 -10 10 -18 21 -18
26 0 4 -8 15 -17 23 -10 9 -25 26 -33 39 -8 12 -20 28 -25 34 -6 6 -45 56 -87
111 -41 55 -84 110 -94 122 -11 11 -26 31 -34 43 -8 12 -22 30 -30 40 -8 10
-22 28 -30 40 -8 12 -22 30 -30 40 -8 10 -22 28 -30 40 -8 12 -28 37 -45 55
-16 18 -40 46 -53 63 -12 16 -37 46 -55 65 -17 20 -37 42 -42 49 -6 7 -26 33
-45 58 -19 24 -46 57 -60 72 -14 15 -31 35 -39 45 -8 10 -33 39 -55 64 -23 25
-62 70 -87 100 -100 116 -115 134 -157 178 -24 25 -62 68 -85 95 -79 91 -514
551 -594 629 -4 4 -102 100 -218 212 -115 113 -213 205 -216 205 -3 0 -15 13
-26 28 -17 23 -28 74 -53 247 -137 958 -400 1700 -822 2326 -98 146 -261 354
-358 459 l-51 55 44 -90 c152 -312 309 -857 396 -1380 134 -797 145 -1576 35
-2335 -72 -495 -162 -815 -361 -1280 -505 -1182 -1370 -2393 -2565 -3591
-1047 -1050 -2479 -2046 -4343 -3021 -537 -282 -1437 -715 -2030 -978 -1422
-631 -3486 -1381 -5415 -1966 -1107 -337 -2037 -587 -3210 -864 l-345 -82 -58
63 c-80 89 -228 278 -294 378 -97 147 -250 488 -324 726 -50 163 -111 465
-149 741 -23 169 -59 507 -55 512 2 2 174 59 382 127 208 67 596 193 863 280
1273 413 2174 766 3420 1340 691 319 1569 752 2005 990 1240 678 2409 1430
3420 2200 88 67 225 168 305 225 1215 867 2319 1917 3056 2905 624 836 991
1606 1099 2305 22 144 31 449 16 589 -26 248 -87 460 -190 665 -124 246 -284
450 -497 634 -157 136 -304 233 -527 348 -572 293 -1179 467 -1891 540 -210
21 -756 30 -986 15 -1141 -73 -2276 -391 -3520 -986 -349 -167 -503 -252 -727
-401 -2240 -1493 -3989 -3278 -5185 -5289 -322 -542 -640 -1178 -864 -1730
-722 -1779 -989 -3596 -763 -5189 121 -852 368 -1555 740 -2106 76 -113 146
-188 279 -300 36 -30 72 -62 80 -71 8 -9 46 -40 84 -68 38 -29 74 -58 81 -64
6 -7 31 -28 55 -47 24 -19 48 -40 54 -45 6 -6 28 -21 48 -35 21 -14 38 -28 38
-32 0 -5 5 -8 10 -8 6 0 40 -22 75 -50 35 -27 67 -50 70 -50 3 0 20 -13 38
-30 18 -16 38 -30 45 -30 6 0 12 -4 12 -10 0 -5 5 -10 11 -10 6 0 25 -11 43
-25 18 -14 36 -25 40 -25 4 0 16 -8 27 -19 11 -10 37 -27 57 -37 20 -11 39
-22 40 -26 2 -5 8 -8 14 -8 5 0 24 -11 42 -25 18 -14 38 -25 43 -25 6 0 16 -6
22 -14 7 -8 24 -17 39 -21 15 -4 29 -10 32 -14 3 -4 34 -21 70 -38 36 -17 100
-47 142 -67 42 -20 79 -36 81 -36 3 0 27 -10 54 -22 26 -11 54 -22 62 -24 7
-1 18 -7 24 -13 6 -6 21 -11 33 -11 12 0 27 -7 34 -15 7 -8 18 -14 24 -13 6 2
56 -14 111 -33 143 -52 193 -69 250 -85 107 -31 201 -56 230 -60 17 -2 44 -8
60 -14 111 -35 460 -82 785 -106 171 -12 767 -5 925 11 28 3 77 7 110 10 33 3
78 8 100 11 22 3 54 7 70 9 71 7 283 37 320 45 22 4 67 11 100 15 78 10 91 12
145 25 25 6 61 13 80 15 19 3 53 9 75 15 22 6 54 13 70 16 17 3 39 7 50 10 11
2 31 6 45 9 14 3 45 9 70 15 102 24 220 50 246 54 12 2 30 8 40 14 11 5 24 7
31 5 6 -2 26 3 43 12 18 9 34 14 37 12 2 -3 19 1 38 8 18 8 35 12 38 9 3 -3
18 1 35 10 16 8 32 13 35 10 3 -3 21 2 42 10 20 9 39 15 43 14 9 -2 88 20 122
34 14 6 37 12 53 14 15 2 40 10 56 18 16 9 31 13 33 10 3 -2 27 5 53 16 26 11
50 18 52 16 3 -2 26 5 51 16 26 11 59 21 74 23 15 2 41 11 58 20 18 9 34 14
37 11 3 -2 26 5 51 16 26 11 59 21 74 23 15 2 45 13 67 24 22 12 49 21 59 21
11 0 53 15 95 34 41 19 77 32 80 30 3 -3 37 8 75 25 39 16 72 28 74 25 3 -2
46 14 97 36 51 22 98 40 106 40 8 0 107 40 219 89 113 50 227 96 253 104 62
19 1016 437 1024 449 7 12 387 178 407 178 8 0 93 34 188 76 95 42 183 77 196
79 23 4 74 20 183 60 33 13 87 30 120 40 33 10 83 25 110 35 28 9 77 25 110
35 33 10 78 23 100 30 22 7 60 18 85 25 25 6 59 16 75 22 17 5 40 11 52 13 11
2 32 7 45 11 12 4 30 9 38 10 8 1 35 8 60 14 25 7 54 13 66 14 11 2 26 6 33
10 6 4 28 9 49 12 20 2 48 7 62 10 46 12 318 65 430 83 103 17 286 42 340 46
25 2 71 6 103 9 55 6 124 12 217 21 226 20 719 27 955 12 113 -7 377 -34 545
-57 41 -5 98 -12 125 -15 28 -4 64 -10 80 -15 17 -5 50 -12 75 -15 45 -6 180
-36 255 -56 22 -5 49 -12 60 -14 11 -2 32 -8 48 -14 15 -6 27 -8 27 -6 0 3 17
-1 38 -9 20 -7 64 -21 97 -31 99 -29 187 -57 245 -77 30 -11 75 -26 100 -33
25 -7 110 -37 190 -68 80 -30 172 -64 204 -74 33 -10 65 -23 71 -29 6 -7 35
-20 63 -30 29 -10 52 -22 52 -25 0 -4 -69 -37 -152 -74 -84 -37 -253 -114
-375 -171 l-222 -104 -88 34 c-411 157 -903 264 -1403 306 -161 14 -599 14
-760 0 -862 -73 -1605 -356 -2296 -876 -1105 -831 -1771 -2106 -1899 -3634
-30 -353 -26 -787 9 -1080 3 -25 8 -70 11 -100 7 -70 22 -172 42 -280 8 -47
17 -98 19 -115 1 -16 10 -61 19 -100 9 -38 18 -80 21 -93 12 -68 49 -218 88
-352 9 -30 18 -64 21 -75 2 -11 8 -38 13 -60 5 -22 16 -53 24 -70 8 -16 13
-35 11 -42 -2 -6 8 -34 22 -63 14 -28 23 -54 21 -59 -3 -4 26 -79 64 -165 39
-87 70 -165 70 -173 0 -20 138 -335 150 -343 5 -3 41 -80 80 -170 40 -91 78
-172 85 -180 8 -9 26 -40 40 -70 15 -30 41 -80 58 -111 77 -135 89 -156 105
-184 44 -80 123 -204 170 -268 12 -17 22 -35 22 -39 0 -4 8 -16 18 -27 27 -29
52 -64 52 -73 0 -4 8 -16 18 -27 31 -34 52 -65 52 -78 0 -7 4 -13 8 -13 5 0
26 -25 48 -55 39 -56 57 -79 97 -125 12 -14 41 -50 66 -80 24 -30 50 -59 58
-63 7 -4 13 -12 13 -16 0 -21 347 -377 435 -446 28 -22 54 -46 58 -53 9 -14
152 -127 302 -238 55 -41 105 -79 112 -84 7 -6 15 -10 18 -10 9 0 90 -54 93
-62 2 -5 8 -8 14 -8 6 0 26 -11 44 -25 18 -14 37 -25 42 -25 6 0 12 -3 14 -7
3 -7 39 -28 123 -72 17 -9 32 -19 33 -23 2 -5 8 -8 13 -8 6 0 47 -17 92 -39
45 -21 93 -42 107 -46 14 -4 32 -13 40 -20 18 -14 194 -85 213 -85 6 0 59 -17
117 -39 148 -54 199 -72 250 -87 83 -24 155 -42 185 -47 17 -3 82 -17 145 -31
63 -14 131 -27 150 -30 19 -3 60 -10 90 -15 30 -6 82 -13 115 -16 63 -6 88 -9
170 -20 28 -4 75 -8 105 -10 30 -1 114 -6 185 -10 215 -12 755 -6 880 9 37 5
188 18 235 21 66 4 179 16 320 34 139 18 146 19 210 31 34 6 76 13 93 16 18 3
41 7 52 9 48 10 84 15 150 20 100 8 121 11 131 18 9 5 111 11 142 8 42 -4 -13
-36 -191 -113 -226 -96 -239 -102 -249 -100 -3 1 -52 -19 -109 -43 -56 -25
-110 -45 -121 -45 -10 0 -37 -9 -59 -21 -22 -11 -52 -22 -67 -24 -29 -5 -107
-30 -160 -51 -18 -8 -42 -14 -53 -14 -11 0 -34 -7 -50 -16 -17 -8 -33 -13 -36
-10 -3 3 -22 -1 -42 -8 -20 -8 -63 -21 -96 -31 -33 -10 -72 -22 -86 -27 -27
-10 -45 -13 -109 -22 -19 -3 -51 -10 -70 -15 -36 -10 -83 -22 -110 -28 -8 -2
-42 -7 -75 -12 -33 -4 -85 -14 -115 -20 -61 -13 -100 -19 -175 -27 -27 -2 -72
-9 -100 -14 -27 -5 -86 -12 -130 -15 -44 -3 -93 -8 -110 -10 -106 -15 -642
-22 -867 -11 -279 14 -359 21 -493 41 -11 2 -45 6 -75 9 -49 6 -222 33 -260
41 -8 2 -58 13 -110 25 -52 11 -104 22 -115 25 -38 8 -140 34 -217 54 -320 86
-307 83 -357 76 -24 -4 -69 -18 -100 -32 -31 -13 -65 -25 -76 -26 -11 -1 -49
-14 -85 -28 -85 -34 -156 -59 -200 -70 -19 -4 -66 -22 -104 -39 -37 -17 -70
-29 -73 -26 -3 3 -30 -6 -60 -20 -31 -13 -63 -24 -73 -24 -10 0 -43 -12 -74
-26 -31 -14 -67 -27 -79 -29 -37 -7 -124 -33 -146 -44 -11 -6 -29 -11 -41 -11
-11 0 -39 -9 -61 -21 -22 -11 -46 -18 -52 -16 -7 2 -29 -4 -49 -15 -21 -10
-50 -20 -65 -22 -16 -2 -45 -11 -67 -20 -21 -10 -41 -15 -43 -12 -3 3 -15 0
-26 -5 -11 -6 -29 -13 -41 -15 -37 -6 -124 -32 -145 -44 -12 -6 -26 -8 -31 -5
-5 3 -22 -1 -37 -8 -25 -13 -83 -28 -123 -32 -9 -1 -25 -7 -37 -13 -11 -6 -23
-9 -26 -6 -2 3 -22 -2 -42 -11 -21 -8 -40 -13 -43 -10 -2 2 -14 -1 -26 -7 -11
-6 -32 -13 -46 -14 -14 -2 -43 -8 -65 -14 -37 -10 -89 -23 -140 -35 -11 -2
-40 -9 -65 -15 -25 -6 -54 -12 -65 -15 -11 -2 -40 -9 -65 -16 -25 -6 -55 -13
-67 -15 -33 -6 -59 -11 -138 -29 -38 -8 -83 -17 -100 -20 -16 -2 -52 -9 -80
-15 -27 -6 -63 -12 -80 -15 -16 -2 -68 -12 -115 -21 -105 -19 -141 -25 -160
-26 -8 0 -33 -4 -55 -9 -53 -11 -251 -41 -295 -45 -19 -2 -51 -5 -70 -8 -19
-3 -53 -7 -75 -10 -22 -3 -74 -9 -115 -15 -74 -10 -167 -20 -245 -26 -22 -2
-60 -6 -85 -8 -81 -9 -164 -17 -240 -22 -41 -3 -88 -7 -105 -10 -57 -8 -452
-18 -685 -17 -317 0 -811 13 -990 26 -52 4 -122 9 -155 12 -55 3 -121 10 -217
20 -21 2 -57 6 -80 8 -24 3 -68 8 -98 11 -55 7 -79 10 -180 19 -30 3 -70 8
-90 11 -266 36 -338 47 -410 59 -47 9 -101 18 -120 22 -29 5 -139 25 -315 59
-16 3 -39 8 -50 10 -11 2 -74 15 -140 30 -66 15 -133 29 -150 32 -28 4 -131
31 -200 52 -32 10 -141 33 -150 32 -3 -1 -20 5 -38 12 -27 12 -85 26 -114 29
-5 0 -24 6 -43 13 -36 14 -84 27 -110 31 -8 1 -35 10 -60 19 -25 9 -52 18 -60
20 -57 13 -140 38 -230 70 -58 20 -114 37 -125 39 -11 2 -65 21 -120 43 -132
52 -198 77 -207 78 -3 0 -10 3 -14 8 -4 4 -14 7 -23 7 -8 0 -62 18 -120 41
-58 23 -198 77 -311 121 -113 44 -223 89 -245 100 -21 11 -73 33 -115 50 -41
16 -79 33 -85 38 -5 5 -46 22 -90 40 -44 17 -89 37 -100 44 -11 7 -47 23 -80
36 -33 12 -94 38 -135 58 -41 19 -104 48 -140 64 -116 53 -541 268 -550 279
-3 3 -21 11 -40 19 -19 8 -57 27 -85 43 -27 16 -57 32 -65 37 -8 5 -42 23 -75
40 -33 17 -82 44 -110 61 -27 16 -63 37 -80 45 -16 8 -39 21 -50 27 -11 7 -58
35 -105 62 -47 28 -94 56 -105 62 -11 7 -28 16 -37 19 -10 3 -18 10 -18 14 0
4 -8 10 -17 14 -10 3 -25 10 -33 16 -8 5 -60 37 -115 71 -55 34 -101 66 -103
71 -2 4 -10 8 -17 8 -7 0 -27 11 -43 25 -17 14 -34 25 -38 25 -9 1 -119 70
-141 90 -7 5 -15 10 -18 10 -9 0 -90 54 -93 63 -2 4 -8 7 -13 7 -12 0 -93 52
-97 63 -2 4 -8 7 -13 7 -8 0 -87 47 -99 60 -3 3 -12 10 -22 15 -9 6 -49 33
-88 60 -40 28 -81 54 -91 60 -11 5 -19 13 -19 17 0 5 -5 8 -12 8 -6 0 -26 11
-44 25 -18 14 -37 25 -43 25 -6 0 -11 4 -11 9 0 5 -8 11 -17 15 -10 3 -45 26
-78 51 -33 25 -67 48 -75 52 -8 4 -21 13 -29 21 -8 7 -26 21 -40 30 -14 9 -33
22 -41 29 -58 46 -110 82 -110 76 0 -8 176 -216 319 -378 163 -183 605 -629
802 -810 1964 -1797 4399 -2904 7144 -3250 1200 -151 2565 -152 3758 -4 3127
388 5673 1412 7527 3027 179 156 558 529 730 717 550 604 1041 1344 1265 1905
21 52 43 100 49 106 6 6 137 66 291 132 154 66 340 146 413 178 98 43 135 55
141 46 13 -21 -26 -221 -73 -379 -25 -85 -46 -156 -51 -178 -2 -11 -20 -59
-38 -106 -18 -46 -32 -90 -29 -97 2 -7 -1 -12 -7 -12 -6 0 -11 -10 -11 -23 0
-13 -7 -32 -15 -43 -8 -10 -15 -25 -15 -33 0 -18 -79 -219 -96 -246 -7 -11
-13 -23 -14 -27 0 -4 -12 -33 -25 -63 -14 -31 -25 -58 -25 -61 0 -19 -249
-504 -311 -607 -16 -26 -29 -50 -29 -53 0 -3 -11 -20 -25 -38 -14 -18 -25 -37
-25 -41 0 -4 -11 -23 -25 -41 -14 -18 -25 -37 -25 -43 0 -6 -4 -11 -10 -11 -5
0 -10 -6 -10 -14 0 -8 -3 -16 -7 -18 -9 -4 -101 -138 -122 -177 -7 -14 -23
-37 -35 -51 -12 -14 -40 -52 -62 -85 -21 -33 -45 -66 -52 -74 -8 -8 -25 -30
-38 -50 -24 -35 -47 -67 -109 -147 -35 -46 -146 -184 -160 -200 -5 -6 -48 -53
-95 -105 -150 -165 -190 -207 -445 -459 -301 -298 -384 -374 -585 -542 -1126
-942 -2759 -1753 -4758 -2364 -1113 -340 -2349 -586 -3412 -679 -41 -4 -86 -8
-100 -10 -57 -8 -215 -20 -380 -30 -63 -4 -128 -8 -145 -10 -239 -29 -1664
-22 -1885 9 -19 3 -82 8 -139 11 -58 4 -114 9 -125 11 -11 2 -49 6 -85 9 -36
3 -86 8 -111 10 -25 3 -67 8 -95 11 -89 9 -109 12 -165 19 -30 4 -71 9 -90 11
-89 8 -131 14 -218 29 -51 9 -109 18 -130 20 -42 4 -84 11 -162 25 -30 6 -73
12 -96 15 -22 2 -60 9 -85 15 -24 6 -57 13 -74 15 -16 2 -57 9 -90 15 -33 6
-73 13 -90 16 -16 3 -70 15 -120 26 -49 11 -103 22 -120 24 -16 2 -73 13 -125
24 -52 12 -108 24 -125 26 -16 3 -41 9 -55 13 -30 11 -105 29 -140 35 -14 2
-56 12 -95 21 -38 9 -79 19 -90 21 -11 2 -38 8 -60 14 -22 6 -49 12 -60 14
-11 2 -33 9 -50 16 -16 7 -39 14 -50 16 -11 2 -45 11 -75 20 -30 9 -62 17 -70
18 -8 2 -55 15 -105 31 -49 16 -94 29 -100 29 -5 1 -28 7 -50 14 -22 7 -65 20
-95 29 -30 9 -77 24 -105 33 -27 10 -104 35 -170 56 -66 21 -151 50 -189 66
-38 16 -82 31 -97 33 -15 3 -49 15 -76 27 -26 12 -50 22 -53 23 -43 11 -555
212 -604 237 -22 11 -84 37 -139 59 -54 22 -108 45 -120 53 -12 7 -56 26 -97
41 -41 16 -77 32 -80 36 -3 4 -32 17 -65 30 -33 12 -67 28 -76 35 -8 8 -19 14
-22 14 -4 0 -37 14 -74 31 -160 74 -192 89 -265 123 -42 20 -81 36 -86 36 -6
0 -12 3 -14 8 -1 4 -66 39 -143 77 -77 39 -142 73 -145 76 -3 4 -21 14 -40 22
-19 9 -57 30 -85 46 -27 17 -61 36 -75 41 -13 6 -27 14 -30 18 -3 4 -21 15
-40 25 -65 35 -95 52 -100 58 -3 4 -15 9 -27 13 -13 4 -23 12 -23 17 0 5 -5 9
-11 9 -6 0 -58 29 -115 65 -57 36 -108 65 -114 65 -5 0 -10 4 -10 8 0 4 -22
21 -50 37 -27 16 -50 33 -50 37 0 4 -6 8 -12 8 -11 1 -175 104 -203 127 -5 5
-46 33 -90 63 -44 29 -82 56 -85 59 -3 4 -32 24 -65 46 -33 22 -68 48 -79 58
-11 9 -25 17 -32 17 -7 0 -14 4 -16 8 -1 4 -43 37 -92 72 -49 36 -112 84 -142
108 -29 23 -55 42 -58 42 -4 0 -20 13 -38 30 -17 17 -35 30 -39 30 -9 0 -34
20 -103 82 -22 21 -49 40 -58 43 -10 4 -18 10 -18 15 0 5 -15 17 -32 29 -18
11 -42 28 -53 38 -11 10 -61 52 -110 93 -138 115 -117 97 -286 252 -46 42
-111 100 -143 130 -195 176 -491 473 -736 738 -47 50 -97 105 -112 121 -16 16
-28 32 -28 35 0 3 -17 22 -37 44 -21 21 -54 58 -74 82 -20 23 -52 61 -70 83
-19 22 -40 44 -46 48 -7 4 -13 12 -13 17 0 5 -12 23 -27 39 -62 67 -171 199
-266 324 -12 15 -29 36 -37 47 -8 10 -22 28 -30 40 -8 12 -19 28 -25 34 -5 6
-23 31 -40 56 -39 58 -46 68 -67 88 -10 9 -18 20 -18 25 0 9 -41 69 -53 78 -5
4 -14 16 -20 27 -22 38 -108 161 -123 173 -8 6 -14 18 -14 25 0 8 -4 14 -10
14 -5 0 -16 16 -24 35 -8 19 -20 35 -25 35 -6 0 -11 5 -11 12 0 6 -38 68 -84
137 -84 127 -91 138 -136 227 -14 27 -30 52 -37 57 -6 4 -17 23 -23 42 -6 19
-16 35 -20 35 -5 0 -19 23 -31 50 -12 28 -25 50 -29 50 -5 0 -16 20 -25 44
-10 25 -22 47 -29 49 -6 3 -20 28 -31 56 -11 28 -23 51 -26 51 -4 0 -19 24
-34 53 -14 28 -42 79 -60 112 -19 33 -48 89 -65 124 -18 35 -37 69 -44 76 -6
7 -25 43 -41 81 -16 38 -34 74 -41 79 -6 6 -35 64 -63 130 -29 66 -60 131 -70
145 -23 32 -282 625 -286 654 -1 11 -30 84 -64 160 -33 76 -61 145 -61 153 0
7 -13 46 -29 86 -38 97 -61 164 -72 210 -5 22 -18 56 -29 77 -11 22 -20 47
-20 57 0 10 -9 40 -19 68 -11 27 -27 77 -36 110 -10 33 -27 81 -38 107 -11 27
-18 51 -14 54 3 4 -3 24 -14 45 -10 22 -21 51 -23 67 -1 15 -8 37 -14 49 -7
12 -12 31 -12 43 0 11 -8 37 -19 58 -10 20 -16 42 -14 49 2 6 -3 26 -12 43 -9
18 -14 34 -11 37 2 3 -4 24 -14 48 -10 24 -16 45 -14 48 3 3 -2 19 -11 37 -9
17 -14 37 -12 43 2 7 0 21 -6 32 -6 11 -12 29 -13 40 -2 11 -8 40 -14 65 -6
25 -13 54 -15 65 -3 11 -9 40 -15 65 -6 25 -13 54 -15 65 -7 28 -21 89 -40
165 -9 36 -18 76 -20 90 -2 14 -11 57 -20 95 -8 39 -17 79 -20 90 -2 11 -8 38
-14 59 -5 22 -8 43 -5 48 3 4 1 16 -5 26 -5 10 -12 36 -15 58 -3 21 -10 62
-16 89 -6 28 -13 66 -16 85 -3 19 -7 46 -10 60 -3 14 -5 32 -6 40 0 8 -7 46
-15 85 -7 38 -16 90 -18 115 -3 25 -10 72 -15 105 -16 97 -20 118 -25 160 -2
22 -9 74 -15 115 -6 41 -13 95 -15 120 -7 66 -17 151 -22 185 -3 17 -7 55 -9
85 -7 87 -14 163 -18 194 -3 16 -7 65 -11 110 -6 81 -11 134 -20 224 -2 26 -7
92 -10 147 -3 55 -8 132 -10 170 -29 414 -23 1805 9 2050 2 17 7 84 11 149 4
65 8 126 10 135 1 9 6 54 10 101 4 47 8 96 10 110 2 14 6 57 10 95 30 317 46
463 71 645 18 133 23 173 29 235 3 28 12 84 20 125 8 41 17 98 20 125 4 28 11
64 15 80 5 17 11 48 15 70 3 22 10 63 15 90 17 90 21 109 36 190 8 44 24 127
35 185 12 58 23 114 25 125 2 11 13 63 25 115 11 52 23 109 25 125 3 17 9 41
14 55 4 14 18 70 30 125 12 55 24 107 27 115 6 17 32 124 38 155 5 31 46 196
56 230 11 34 48 190 53 220 2 11 9 32 15 48 6 15 9 27 6 27 -2 0 2 15 10 34 8
18 12 36 9 39 -3 3 0 15 6 28 7 12 21 54 31 93 10 39 26 96 34 126 9 30 25 87
35 125 10 39 26 95 35 125 9 30 22 75 30 100 7 25 22 70 33 100 39 109 65 186
78 230 20 69 108 317 138 389 14 36 26 70 26 77 0 18 351 918 361 924 4 3 33
73 64 155 32 83 63 157 70 165 6 8 35 78 65 155 30 77 59 147 66 155 6 8 26
53 44 100 17 47 38 96 45 110 22 40 95 200 95 207 0 3 6 14 13 22 8 9 20 32
27 51 8 19 16 37 19 40 3 3 35 64 71 135 35 72 69 137 76 145 6 8 17 32 24 53
6 20 16 37 21 37 5 0 9 5 9 11 0 26 254 511 356 680 19 31 34 61 34 67 0 5 6
14 13 20 7 6 28 42 47 79 19 37 38 70 41 73 8 7 50 81 86 150 15 30 47 87 70
126 24 39 43 77 43 83 0 6 5 11 10 11 6 0 10 5 10 11 0 6 32 62 70 124 39 62
70 117 70 123 0 6 3 12 8 14 4 2 28 35 53 73 95 143 164 251 177 275 7 14 22
34 33 46 10 11 19 25 19 31 0 7 6 18 13 25 7 7 79 112 160 233 82 121 172 253
200 292 29 40 65 92 82 115 16 24 61 86 100 138 39 52 86 118 105 145 19 28
40 56 47 63 7 7 20 26 30 42 9 17 21 30 25 30 4 0 8 5 8 12 0 7 12 24 26 39
15 15 32 37 38 47 6 11 44 62 84 114 39 51 89 115 110 142 20 27 67 86 105
132 37 46 67 88 67 93 0 5 3 11 8 13 4 2 53 59 109 128 57 69 110 132 118 141
8 9 15 19 15 23 0 4 12 19 28 34 15 15 49 54 77 87 27 33 54 65 60 71 5 6 26
30 45 54 19 24 40 48 45 54 6 6 28 33 50 61 40 50 79 95 125 144 14 14 42 47
63 73 41 49 97 109 240 259 51 52 137 144 192 204 55 59 132 142 170 183 114
122 409 416 585 582 90 85 189 180 220 210 31 30 96 91 145 135 48 44 103 94
121 110 136 126 227 207 298 268 27 23 61 53 75 66 14 13 46 40 71 60 25 20
57 47 72 61 14 14 41 36 59 50 18 14 37 30 43 35 35 32 96 83 125 105 18 14
46 37 62 53 17 15 34 27 39 27 5 0 13 6 17 13 4 8 44 42 88 78 44 35 85 69 92
75 7 7 42 34 78 60 36 26 65 51 65 56 0 4 7 8 15 8 9 0 18 7 21 15 4 8 11 15
18 15 6 0 19 8 28 18 9 9 23 22 30 27 7 6 72 55 143 110 72 54 135 104 141
109 6 6 22 18 34 26 21 14 154 111 175 127 6 4 29 21 53 37 23 16 42 33 42 37
0 5 11 11 25 15 14 3 25 10 25 14 0 4 19 20 43 36 23 16 47 34 54 39 26 21 39
31 83 60 25 17 50 34 55 38 17 13 112 81 135 97 12 8 28 20 34 25 6 6 31 23
56 40 25 16 47 32 50 35 3 3 43 31 90 63 47 31 105 70 130 87 25 17 53 36 63
43 11 6 33 22 50 35 17 12 37 22 44 22 8 0 16 6 19 14 3 8 19 19 35 25 16 5
29 14 29 20 0 5 9 13 20 16 11 4 111 68 223 142 111 75 210 138 220 141 9 2
17 8 17 13 0 5 12 15 28 21 15 7 48 27 73 44 25 17 61 40 79 49 19 10 40 24
48 31 7 8 24 17 38 20 13 3 24 10 24 15 0 4 19 18 43 29 73 37 130 69 136 78
3 5 31 21 61 36 82 40 123 63 140 78 8 7 32 21 55 31 22 10 46 24 55 31 8 8
40 24 70 36 30 13 60 29 65 35 6 7 35 23 65 35 30 13 64 32 76 42 11 10 23 18
26 18 3 0 41 16 83 35 91 42 89 55 -5 58 -34 1 -62 1 -63 1z m15557 -15950
c60 -9 131 -24 158 -35 26 -10 48 -16 48 -13 0 4 10 0 23 -8 12 -8 42 -22 66
-32 49 -19 234 -133 239 -147 2 -5 8 -9 14 -9 24 0 288 -265 288 -289 0 -6 4
-11 8 -11 5 0 26 -25 48 -56 21 -30 45 -62 52 -69 7 -8 20 -31 28 -52 9 -21
21 -41 26 -44 15 -9 168 -361 162 -370 -3 -5 1 -19 7 -31 7 -13 14 -34 16 -48
2 -14 6 -36 8 -50 2 -14 8 -43 14 -65 21 -80 30 -342 16 -468 -4 -34 -13 -91
-22 -127 -8 -36 -16 -74 -18 -85 -3 -23 -45 -125 -68 -170 -9 -16 -28 -56 -43
-87 -38 -80 -169 -236 -249 -295 -72 -54 -116 -77 -303 -159 -108 -47 -204
-92 -213 -100 -9 -8 -18 -11 -21 -8 -7 6 -66 -22 -86 -42 -7 -8 -24 -14 -36
-14 -13 0 -33 -9 -46 -20 -13 -11 -30 -20 -40 -20 -9 0 -20 -4 -25 -9 -6 -5
-186 -86 -402 -181 -409 -179 -417 -181 -460 -141 -51 50 -65 73 -51 86 7 7
310 142 673 300 363 158 676 298 695 311 19 13 58 33 87 45 28 11 54 26 56 33
9 22 -41 123 -80 163 -46 47 -97 85 -139 102 -27 10 -37 9 -85 -13 -30 -14
-61 -26 -71 -26 -9 0 -350 -146 -758 -325 -486 -213 -754 -325 -776 -325 -40
0 -120 20 -191 49 -29 11 -63 23 -75 26 -178 39 -225 46 -343 48 -147 2 -276
-8 -306 -24 -12 -6 -23 -8 -26 -5 -3 3 -17 -1 -32 -8 -14 -7 -31 -11 -38 -9
-6 2 -25 -3 -42 -11 -16 -9 -38 -16 -49 -16 -10 0 -74 -25 -143 -56 -68 -30
-133 -56 -144 -58 -12 -1 -27 -6 -35 -11 -8 -5 -20 -10 -27 -11 -23 -4 -938
-407 -944 -416 -8 -13 -2487 -1098 -2507 -1098 -8 0 -544 -232 -1191 -515
-647 -283 -1183 -515 -1191 -515 -20 0 -48 33 -67 79 -8 20 -20 39 -25 42 -12
8 -148 316 -148 336 0 7 -12 42 -26 76 -15 34 -28 71 -30 82 -2 11 -9 40 -15
65 -14 52 -18 430 -6 504 18 110 37 185 67 256 38 94 73 164 83 168 4 2 7 7 7
12 0 10 83 134 123 184 60 75 208 214 256 240 9 5 18 12 21 15 14 17 72 51
130 77 36 15 70 34 75 40 13 14 7508 3294 7549 3304 17 4 52 16 78 28 25 11
48 18 51 16 2 -3 17 0 32 6 16 6 67 13 114 17 47 3 87 7 89 8 4 3 64 -3 186
-21z m2297 -1384 c63 -6 132 -16 154 -22 63 -17 228 -81 245 -94 8 -7 27 -16
43 -19 15 -4 27 -10 27 -14 0 -4 13 -14 29 -24 15 -9 46 -32 67 -52 21 -19 42
-35 46 -35 20 0 259 -255 308 -328 25 -38 57 -119 49 -125 -13 -10 -452 -197
-462 -197 -7 0 -17 -4 -23 -10 -8 -8 -35 -16 -66 -19 -4 -1 -14 -8 -23 -17 -9
-10 -26 -18 -38 -19 -29 -4 -1644 -710 -1677 -734 -33 -24 -187 -90 -194 -84
-3 3 -19 -5 -35 -17 -17 -12 -31 -19 -31 -15 0 3 -11 -2 -25 -11 -13 -8 -28
-13 -33 -10 -5 3 -17 -3 -27 -14 -10 -11 -25 -20 -34 -20 -9 0 -33 -9 -54 -20
-20 -11 -43 -20 -51 -20 -7 0 -19 -6 -25 -14 -7 -8 -21 -14 -31 -13 -22 1
-100 -33 -100 -44 0 -5 -6 -6 -12 -4 -7 3 -29 -5 -48 -17 -19 -12 -42 -23 -50
-24 -19 -1 -181 -72 -198 -87 -8 -6 -22 -11 -32 -12 -10 -1 -25 -9 -35 -18 -9
-9 -23 -17 -31 -17 -9 0 -22 -7 -31 -15 -8 -9 -23 -13 -33 -10 -10 3 -20 0
-23 -9 -3 -8 -25 -20 -49 -27 -24 -7 -52 -19 -63 -26 -11 -7 -27 -13 -37 -13
-10 0 -18 -4 -18 -10 0 -5 -9 -10 -20 -10 -11 0 -36 -7 -56 -15 -37 -15 -64
-11 -64 11 0 7 -6 17 -13 21 -7 4 -18 21 -25 36 -12 28 -12 28 45 54 32 14
348 152 703 308 355 155 663 294 684 309 21 14 45 26 52 26 8 0 22 9 31 20 10
11 21 20 25 20 17 0 255 249 293 305 22 33 42 62 45 65 25 25 136 274 151 340
4 19 13 53 19 75 6 22 13 58 16 80 3 21 8 43 11 49 3 5 7 19 8 30 2 12 6 46
10 76 11 77 13 111 16 220 2 99 14 130 50 130 10 0 21 5 24 10 3 6 13 10 21
10 8 0 63 21 122 47 113 49 123 52 217 60 33 3 61 6 62 7 8 7 96 5 194 -4z
m1166 -1077 c8 -21 17 -47 19 -58 6 -36 32 -123 44 -144 6 -12 9 -25 6 -29 -3
-5 0 -26 5 -48 44 -172 46 -529 4 -627 -4 -10 -8 -26 -9 -35 -2 -35 -81 -220
-119 -282 -45 -72 -120 -164 -183 -225 -46 -44 -63 -57 -111 -82 -18 -9 -33
-20 -33 -23 0 -4 -19 -15 -42 -26 -24 -10 -47 -24 -53 -30 -5 -7 -39 -24 -75
-40 -36 -15 -68 -33 -72 -40 -9 -13 -56 -28 -78 -25 -26 4 -90 35 -90 43 0 4
-6 8 -13 8 -8 0 -22 9 -32 20 -10 11 -24 20 -31 20 -7 0 -14 4 -16 8 -5 13
-136 112 -148 112 -5 0 -10 5 -10 10 0 6 -5 10 -12 10 -6 0 -25 11 -42 24 -17
13 -42 27 -56 31 -14 4 -27 11 -30 14 -20 28 -278 125 -356 135 -22 2 -61 10
-88 16 -54 12 -338 16 -396 6 -104 -19 -155 -32 -188 -50 -18 -9 -36 -14 -41
-12 -5 3 -38 -8 -75 -24 -36 -17 -73 -30 -82 -30 -8 0 -288 -119 -621 -265
-333 -146 -612 -264 -620 -261 -14 6 -43 65 -49 101 -2 11 -11 52 -20 90 -8
39 -16 81 -17 94 -2 22 115 74 1853 836 1020 448 1856 814 1858 814 2 1 10
-16 19 -36z m-5152 -719 c44 -8 109 -26 145 -40 65 -25 171 -75 180 -84 3 -3
37 -26 75 -51 39 -26 86 -61 106 -78 48 -41 129 -120 129 -125 0 -2 22 -28 49
-58 67 -71 159 -187 177 -220 7 -15 12 -33 9 -40 -6 -14 -124 -68 -149 -68
-18 0 -179 -69 -186 -80 -3 -4 -23 -17 -45 -28 -70 -35 -88 -59 -82 -106 11
-91 36 -158 79 -208 42 -50 130 -36 343 54 72 30 152 62 179 71 l48 15 28 -61
c26 -58 37 -100 46 -172 2 -16 11 -61 20 -100 24 -106 25 -468 0 -550 -10 -33
-22 -76 -26 -95 -34 -134 -120 -292 -235 -430 -91 -109 -140 -148 -240 -194
-33 -15 -62 -31 -65 -35 -7 -12 -7545 -3311 -7564 -3311 -8 0 -57 -19 -108
-41 -51 -23 -109 -45 -128 -50 -19 -4 -55 -13 -80 -19 -44 -11 -340 -17 -357
-7 -4 3 -30 8 -58 11 -122 17 -307 79 -406 137 -25 15 -56 30 -67 34 -12 3
-22 10 -22 15 0 4 -10 11 -22 14 -13 3 -38 19 -57 36 -18 16 -37 30 -42 30 -4
0 -52 44 -106 98 -102 100 -243 273 -243 298 0 8 -8 22 -17 32 -21 20 -143
301 -166 382 -9 30 -22 73 -29 95 -7 22 -14 47 -15 55 -1 8 -5 29 -8 45 -3 17
-8 100 -10 185 -6 176 5 284 38 410 19 69 77 220 108 280 32 63 110 184 120
188 5 2 9 9 9 15 0 12 184 207 195 207 3 0 16 11 29 25 13 14 39 31 59 40 19
8 37 18 39 23 4 10 7841 3442 7872 3448 12 2 50 9 86 17 80 17 255 13 365 -9z
m3490 -924 c17 -5 57 -14 90 -21 33 -7 74 -18 90 -25 17 -7 33 -13 37 -13 4
-1 28 -10 54 -21 25 -11 48 -20 50 -20 7 0 168 -101 174 -109 3 -4 19 -17 35
-29 102 -78 305 -278 305 -302 0 -4 7 -10 15 -14 8 -3 15 -12 15 -21 0 -8 4
-15 9 -15 11 0 97 -127 105 -156 4 -12 14 -31 24 -42 17 -20 112 -238 146
-337 16 -44 37 -131 52 -205 42 -219 37 -447 -14 -675 -12 -50 -72 -199 -101
-245 -11 -19 -25 -44 -30 -56 -5 -11 -15 -27 -23 -35 -7 -8 -28 -37 -47 -64
-58 -85 -162 -179 -232 -210 -24 -11 -48 -25 -54 -31 -5 -7 -106 -54 -222
-105 -117 -50 -213 -96 -213 -100 0 -5 -4 -9 -9 -9 -5 0 -22 -5 -38 -12 -15
-6 -34 -10 -40 -9 -7 1 -13 -2 -13 -8 0 -5 -21 -16 -47 -24 -69 -21 -5147
-2246 -5151 -2257 -2 -5 -9 -7 -17 -4 -7 3 -22 -3 -32 -13 -20 -20 -1939 -863
-1964 -863 -9 0 -38 -9 -64 -21 -26 -12 -58 -23 -71 -25 -13 -2 -36 -6 -51
-10 -63 -12 -83 -14 -188 -18 -106 -4 -236 9 -355 35 -64 14 -225 77 -290 113
-25 14 -64 35 -88 47 -23 13 -50 31 -59 41 -9 10 -22 18 -30 18 -7 0 -13 5
-13 10 0 6 -6 10 -13 10 -16 0 -190 169 -237 230 -19 25 -37 47 -40 50 -3 3
-18 25 -34 50 -16 25 -37 57 -48 72 -24 35 -148 323 -148 343 0 8 -14 46 -30
83 -17 37 -33 78 -35 92 -2 14 -12 46 -22 72 -11 31 -14 51 -8 57 6 5 1380
609 3055 1342 1675 733 3047 1336 3048 1341 2 5 26 18 53 29 27 12 49 25 49
29 0 4 23 17 50 28 28 12 50 26 50 31 0 6 7 11 15 11 8 0 23 8 33 18 9 9 44
38 78 64 33 25 82 68 108 95 79 80 197 249 227 327 7 15 22 48 35 73 14 24 28
61 34 81 5 20 16 62 25 92 24 80 34 121 41 160 3 19 9 49 14 65 5 17 12 100
16 185 3 85 9 159 13 163 13 13 1351 597 1369 597 9 0 37 10 62 21 53 25 105
38 180 46 30 2 56 6 58 8 7 7 230 3 257 -5z"/>
<path d="M59922 39695 c-2076 -909 -3777 -1656 -3780 -1662 -4 -5 -69 -36
-144 -69 -127 -54 -138 -61 -138 -85 0 -15 7 -32 16 -39 8 -8 21 -27 28 -44
14 -33 53 -75 107 -116 46 -34 152 -37 225 -4 29 13 54 21 57 18 6 -6 7448
3252 7456 3264 3 5 41 25 84 43 95 41 142 80 132 112 -3 12 -8 32 -10 44 -2
13 -10 30 -19 39 -9 8 -16 19 -16 22 0 14 -85 97 -116 114 -18 10 -49 17 -70
16 -28 -1 -1156 -490 -3812 -1653z"/>
<path d="M67225 40439 c-36 -4 -1065 -450 -3790 -1644 -2057 -900 -3752 -1646
-3766 -1656 -14 -10 -67 -36 -117 -58 -50 -21 -106 -53 -124 -70 l-32 -30 17
-36 c22 -46 79 -124 91 -125 6 0 19 -8 30 -18 32 -27 65 -38 126 -41 52 -2 91
14 775 313 396 174 730 316 743 316 12 0 31 9 41 19 11 11 22 17 24 14 5 -5
227 89 357 150 36 17 71 32 78 33 8 1 22 10 33 20 10 9 29 18 42 19 12 2 40
14 61 29 21 14 54 28 75 32 20 4 39 11 42 16 9 14 159 79 194 85 17 3 37 11
45 18 8 7 26 16 40 20 14 4 28 12 31 17 3 5 26 14 50 19 24 6 61 21 81 35 20
14 40 24 45 21 4 -3 22 2 39 12 117 62 100 55 2629 1161 1298 568 2365 1037
2370 1044 6 6 22 17 38 23 33 15 35 39 6 96 -45 88 -81 120 -178 155 -32 12
-61 15 -96 11z"/>
<path d="M84210 23800 c-377 -71 -637 -201 -884 -439 -239 -232 -384 -494
-462 -836 -32 -143 -44 -391 -25 -527 28 -191 103 -432 178 -568 97 -174 246
-361 374 -466 235 -193 433 -290 734 -360 110 -26 137 -28 320 -29 228 0 327
16 536 85 488 161 891 583 1029 1074 61 218 82 432 61 614 -14 117 -57 302
-96 412 -135 374 -428 702 -794 885 -297 149 -680 210 -971 155z m550 -208
c372 -88 676 -297 882 -607 104 -156 165 -298 210 -489 30 -126 33 -457 4
-585 -28 -129 -61 -225 -120 -346 -170 -349 -478 -615 -849 -734 -153 -49
-261 -65 -442 -64 -173 0 -295 19 -445 69 -463 155 -830 557 -940 1029 -112
481 28 978 375 1331 216 220 501 367 801 414 103 16 427 5 524 -18z"/>
<path d="M83832 23242 c-10 -6 -12 -215 -10 -1008 l3 -999 135 0 135 0 3 418
2 417 135 0 c259 0 291 -27 594 -513 l204 -327 153 0 c84 0 155 4 158 9 4 5
-82 144 -190 308 -325 496 -343 519 -423 574 -28 19 -51 37 -51 40 0 3 19 11
43 18 124 37 269 156 326 269 81 160 81 361 -1 514 -40 74 -138 167 -220 207
-139 68 -182 73 -603 78 -209 2 -386 0 -393 -5z m758 -257 c108 -33 187 -103
218 -194 7 -19 12 -69 12 -112 0 -110 -27 -177 -99 -250 -95 -94 -187 -118
-463 -119 l-158 0 0 351 0 352 218 -6 c162 -4 231 -9 272 -22z"/>
<path d="M44825 22416 c-106 -26 -181 -86 -228 -182 -17 -34 -48 -154 -91
-355 -833 -3897 -2100 -9882 -2103 -9935 -9 -119 32 -202 122 -247 67 -33 143
-37 779 -37 531 0 641 3 696 16 116 27 189 86 237 191 32 70 2193 10222 2193
10303 0 86 -16 130 -68 180 -80 78 -44 74 -807 76 -518 2 -692 0 -730 -10z"/>
<path d="M79395 22421 c-103 -25 -190 -95 -231 -186 -17 -37 -138 -586 -388
-1757 -200 -937 -366 -1712 -368 -1723 -4 -15 -9 -10 -23 25 -28 67 -77 160
-120 226 -53 81 -215 240 -305 301 -276 185 -643 290 -1125 323 -195 13 -1998
13 -2220 0 -767 -45 -1332 -218 -1758 -538 -468 -352 -857 -1028 -1121 -1954
-77 -268 -88 -315 -334 -1468 -301 -1404 -307 -1438 -307 -1910 0 -390 23
-557 117 -828 231 -674 805 -1080 1718 -1217 291 -44 379 -48 1205 -52 981 -6
1169 3 1529 73 562 109 1034 365 1345 727 41 48 76 85 78 83 3 -2 -23 -130
-56 -284 -77 -357 -79 -428 -9 -508 39 -44 88 -69 163 -83 82 -15 1295 -15
1367 0 122 26 207 91 254 194 17 37 350 1584 1106 5131 978 4595 1081 5088
1082 5174 1 112 -19 163 -83 206 -83 54 -78 54 -810 53 -372 -1 -689 -4 -706
-8z m-2135 -4531 c199 -11 309 -29 422 -70 191 -70 302 -206 339 -416 16 -95
6 -380 -19 -519 -45 -245 -495 -2359 -528 -2480 -183 -662 -444 -917 -1014
-987 -152 -19 -2727 -19 -2880 0 -360 44 -523 150 -597 387 -27 89 -24 385 6
550 37 205 530 2463 567 2600 63 229 138 408 230 546 158 239 452 365 904 388
213 12 2365 12 2570 1z"/>
<path d="M25420 21669 c-75 -12 -173 -62 -210 -107 -17 -20 -41 -60 -55 -87
-17 -36 -308 -1396 -1021 -4760 -1089 -5144 -1026 -4827 -976 -4923 28 -53 87
-96 155 -114 43 -11 728 -13 4017 -13 3714 0 3969 1 4020 17 116 36 193 111
230 226 11 31 76 338 146 682 156 766 157 788 59 879 -84 78 216 71 -3256 71
-1709 0 -3110 3 -3112 8 -2 4 108 525 244 1157 136 633 248 1151 249 1152 0 2
928 4 2063 5 2004 3 2063 4 2112 22 104 40 159 90 202 183 37 80 274 1184 274
1277 1 119 -38 184 -135 228 l-51 23 -2044 3 c-1619 2 -2042 5 -2039 15 3 6
106 499 229 1094 l224 1083 3080 0 c2048 0 3110 4 3170 10 152 18 244 77 298
193 40 84 290 1310 291 1427 1 131 -41 193 -159 236 -48 18 -181 19 -4000 20
-2288 1 -3973 -2 -4005 -7z"/>
<path d="M34820 19633 c-164 -19 -279 -121 -318 -283 -24 -101 -1561 -7348
-1566 -7390 -9 -61 9 -146 39 -192 32 -48 103 -84 192 -98 46 -7 288 -10 709
-8 595 3 642 5 689 22 107 40 175 107 213 208 11 29 243 1115 516 2413 274
1298 511 2416 527 2485 142 584 364 898 725 1022 248 85 352 90 1749 85 1004
-4 1162 -6 1245 -21 372 -63 520 -203 550 -517 10 -105 0 -274 -26 -429 -9
-52 -249 -1188 -535 -2523 -343 -1603 -519 -2447 -519 -2485 0 -85 17 -131 64
-178 79 -79 65 -78 785 -82 662 -3 733 0 820 39 59 26 126 91 158 154 20 38
138 576 525 2385 499 2339 542 2546 575 2825 22 187 25 699 5 840 -86 605
-322 1014 -752 1302 -377 252 -890 389 -1580 423 -264 12 -1122 13 -1355 0
-704 -39 -1249 -221 -1668 -559 -90 -73 -252 -234 -304 -303 -20 -26 -38 -46
-40 -44 -3 2 23 134 57 292 71 333 77 412 40 489 -24 49 -65 83 -140 112 -41
16 -100 18 -695 19 -357 1 -666 -1 -685 -3z"/>
<path d="M49715 19629 c-602 -37 -1113 -176 -1504 -408 -160 -95 -267 -176
-400 -306 -436 -422 -766 -1051 -989 -1880 -54 -199 -42 -147 -291 -1310 -299
-1396 -306 -1434 -306 -1905 0 -230 4 -321 18 -415 67 -452 223 -795 485
-1067 325 -336 762 -535 1382 -627 291 -43 376 -46 1290 -46 783 0 891 2 1025
18 533 64 939 201 1286 432 149 100 246 183 388 331 l119 125 -29 -138 c-90
-422 -101 -488 -95 -546 10 -103 58 -165 157 -204 41 -17 98 -18 739 -18 l695
0 60 24 c80 32 164 116 192 191 23 61 1580 7381 1590 7471 13 125 -48 227
-159 265 -50 18 -97 19 -743 19 l-690 0 -60 -24 c-80 -32 -164 -116 -192 -191
-12 -30 -46 -176 -78 -325 -31 -148 -61 -292 -67 -318 l-10 -49 -59 119 c-70
142 -129 221 -243 331 -252 241 -602 378 -1136 443 -117 14 -2164 21 -2375 8z
m2832 -1752 c122 -21 195 -43 268 -79 293 -146 382 -457 289 -1008 -33 -198
-485 -2320 -519 -2437 -154 -538 -434 -821 -905 -914 -183 -36 -418 -41 -1685
-36 -1012 4 -1225 7 -1300 20 -347 58 -511 181 -581 437 -22 80 -25 352 -5
475 15 99 491 2295 532 2460 195 775 498 1058 1174 1095 77 4 703 6 1390 5
1093 -2 1262 -4 1342 -18z"/>
<path d="M57322 19629 c-117 -23 -205 -90 -253 -193 -22 -48 -190 -823 -810
-3741 -430 -2024 -784 -3712 -786 -3751 -9 -119 32 -202 122 -247 67 -33 143
-37 779 -37 531 0 641 3 696 16 116 27 189 86 238 192 17 38 171 749 528 2445
277 1316 518 2447 535 2515 118 478 297 766 570 920 74 42 243 97 357 117 166
28 432 35 1513 35 1040 0 1068 1 1130 20 110 35 189 114 223 222 27 87 246
1186 246 1234 0 116 -50 197 -148 236 l-57 23 -740 0 c-803 0 -875 -4 -1183
-61 -612 -112 -1109 -379 -1437 -774 -32 -38 -60 -68 -62 -66 -2 1 24 130 57
286 69 328 76 413 37 490 -30 58 -103 104 -191 119 -75 13 -1298 13 -1364 0z"/>
<path d="M65625 19633 c-999 -48 -1647 -306 -2104 -838 -391 -455 -633 -974
-840 -1800 -52 -209 -67 -275 -301 -1365 -277 -1290 -285 -1342 -285 -1825 0
-347 10 -444 70 -681 189 -744 729 -1202 1625 -1378 172 -34 421 -64 634 -76
259 -15 4058 -14 4128 1 118 25 201 86 248 182 24 51 51 166 147 632 136 663
141 714 88 801 -24 37 -45 56 -90 79 l-59 30 -2120 6 c-1553 4 -2144 9 -2206
18 -293 41 -452 124 -532 278 -50 95 -68 186 -68 342 0 199 40 455 118 751
l27 105 2900 5 c2831 5 2901 5 2945 24 119 51 188 132 219 259 21 85 290 1411
311 1533 46 267 62 434 67 714 7 392 -23 631 -115 907 -87 260 -213 465 -401
653 -390 390 -957 591 -1795 640 -156 9 -2434 12 -2611 3z m2465 -1752 c223
-30 367 -86 460 -180 66 -66 104 -141 126 -248 22 -104 14 -360 -16 -526 -28
-159 -123 -583 -132 -593 -3 -2 -932 -3 -2064 -2 l-2060 3 48 210 c26 116 59
262 74 325 62 273 155 502 261 645 181 245 433 352 883 375 242 12 2318 5
2420 -9z"/>
</g>
</svg>
